# xmcd CD database file
#
# Track frame offsets:
#	150
#	13805
#	25010
#	39757
#	52430
#	60990
#	72877
#	83307
#	90007
#	99940
#	109315
#	117797
#
# Disc length: 1692 seconds
#
# Revision: 1
# Processed by: cddbd v1.5.1PL2 Copyright (c) Steve Scherf et al.
# Submitted via: CDex 1.60beta1
#
DISCID=82069a0c
DTITLE=Jorge Autuori Trio - Jorge Autuori Trio-VOL1
DYEAR=1967
DGENRE=Jazz
TTITLE0=TRISTE MADRUGADA
TTITLE1=THERE'S A KIND OF HUSH
TTITLE2=TEM MAIS SAMBA
TTITLE3=O CADERNINHO
TTITLE4=DESPEDIDA DE MANGUEIRA
TTITLE5=SAMBA COM MÔLHO
TTITLE6=PALMAS NO PORTÃO
TTITLE7=NEVER NEVER
TTITLE8=FECHEI A PORTA 
TTITLE9=CAPOEIRA DE OXALÁ
TTITLE10=ILUSÃO DEMAIS
TTITLE11=TEMA DE NÓS TRÉS
EXTD=YEAR: 1967
EXTT0=
EXTT1=
EXTT2=
EXTT3=
EXTT4=
EXTT5=
EXTT6=
EXTT7=
EXTT8=
EXTT9=
EXTT10=
EXTT11=
PLAYORDER=
